<?xml version="1.0" encoding="utf-8"?>
<!-- Generator: Adobe Illustrator 16.0.0, SVG Export Plug-In . SVG Version: 6.00 Build 0)  -->
<!DOCTYPE svg PUBLIC "-//W3C//DTD SVG 1.1//EN" "http://www.w3.org/Graphics/SVG/1.1/DTD/svg11.dtd">
<svg version="1.1" id="Calque_1" xmlns="http://www.w3.org/2000/svg" xmlns:xlink="http://www.w3.org/1999/xlink" x="0px" y="0px"
	 width="392px" height="379.207px" viewBox="0 0 392 379.207" enable-background="new 0 0 392 379.207" xml:space="preserve">
<g>
	<g>
		<path fill-rule="evenodd" clip-rule="evenodd" fill="#403F99" d="M168.32,92.248c-0.042-0.132-0.077-0.32-0.11-0.502
			c-0.03-0.119-0.061-0.246-0.095-0.387C168.092,91.664,168.168,91.959,168.32,92.248z M168.519,92.549
			c-0.046-0.063-0.101-0.111-0.145-0.178C168.441,92.473,168.485,92.521,168.519,92.549z M168.374,92.371
			c-0.037-0.132-0.09-0.336-0.149-0.568C168.259,91.948,168.304,92.124,168.374,92.371z M168.21,91.746
			c0.005,0.02,0.01,0.038,0.014,0.057c-0.005-0.023-0.012-0.05-0.017-0.071C168.208,91.736,168.209,91.741,168.21,91.746z
			 M125.347,109.203c-2.083,1.042-2.758,3.407-2.806,5.57c-0.116,5.223,2.591,8.906,6.044,12.237
			c1.437,1.386,0.634,4.039,2.525,5.206c1.219,0.752,2.419,2.824,3.322,3.942c2.39,2.96,7.757,9.985,11.722,4.505
			c2.392-3.307,4.604-7.062,9.434-6.034c4.209,0.895,8.265,2.161,12.524,2.788c1.623,0.238,3.907,0.564,5.249,1.582
			c1.426,1.082,4.043,0.06,5.781,1.297c0.507,0.359,8.682,4.519,8.682,4.191c2.342,0,4.661,0.898,6.994,0.622
			c1.137-0.135,2.775-0.912,4.019-1.261c3.804-1.07,7.732-2.414,11.229-4.112c1.288-0.626,3.21-0.752,4.626-0.752
			c0-0.481,4.071-1.887,4.539-2.108c1.348-0.635,2.892-3.396,4.202-3.396c0.771-3.067,3.706-4.534,5.134-7.187
			c2.034-3.78,4.782-9.668,2.852-13.585c-0.688-1.393-2.669-3.368-4.209-3.83c-2.183-0.654-6.542-1.119-8.314-2.469
			c-1.605-1.222-2.914-2.931-4.862-3.786c-1.339-0.589-3.803,0.837-5.205,1.197c-1.876,0.481-3.374,0.749-5.249,1.177
			c-2.821,0.644-4.143,2.968-6.4,4.442c-1.879,1.229-2.447,2.343-4.789,2.542c-2.488,0.21-3.505,0.901-5.521,2.082
			c-3.846,2.253-8.282,3.208-12.836,3.425c-4.137,0.197-7.255-0.484-11.226-0.246c-3.276,0.195-13.586,1.994-12.006-3.816
			c1.254-4.603,3.201-8.162,3.388-12.971c0.075-1.91,0.03-3.823,0.115-5.732c0.152-3.41,1.439-5.744,1.837-9.115
			c-0.087,0.396,0.008-3.979,0.017-0.596c-0.004-3.349-0.042-6.707,0.315-10.041c0.321-3.001,1.638-5.12,2.376-7.915
			c0.905-3.426,0.829-7.076,0.785-10.685c-0.069-5.747-0.257-11.514,0.811-17.175c0.896-4.746,2.489-10.606,1.128-15.259
			c-0.934-3.194-2.246-6.044-4.295-8.72c-1.053-1.375-1.413-3.15-2.776-4.531c-1.569-1.589-4.838-2.072-5.848-4.102
			c-2.273,0-4.216-1.224-5.849-2.63c-2.187-1.882-4.593,0.329-7.019-0.724c-2.808-1.22-4.039-0.412-6.894-0.359
			c-2.055,0.038-3.715-4.045-5.06-0.272c-0.826,2.317,1.189,3.066,1.189,5.28c1.048,0,0.705,3.975,0.688,4.552
			c-0.205,7.004,0.741,13.372-0.591,20.346c-1.178,6.174-1.868,13.004-1.013,19.241c0.547,3.985,0.121,7.779,1.593,11.659
			c4.593,12.109,0.942,24.718,0.942,37.188C126.642,103.715,125.347,106.355,125.347,109.203z M272.218,212.197
			c-0.277-4.432,0.281-8.523-0.695-12.917c-1.032-4.649-3.068-8.793-2.593-13.77c0.309-3.233,1.045-6.474,1.084-9.728
			c0.013-1.064-1.587-2.034-1.587-3.133c-0.597,0-2.261-4.587-2.412-5.1c-0.644-2.179-0.88-6.065,0.371-8.185
			c2.967-5.027-0.174-14.148-1.414-19.888c-0.455-2.104-1.029-3.929-1.32-6.141c-0.362-2.758,0.247-4.832,0.192-7.346
			c-0.136-6.306,3.005-12.477,1.813-18.85c-0.534-2.858-1.463-5.175-2.491-7.897c-1.253-3.317-5.197-5.302-7.362-8.008
			c-0.524-0.654-3.208-2.429-3.885-2.429c0-1.096-1.718-2.581-2.461-3.229c-2.69-2.338-4.913-4.916-8.562-5.251
			c-6.551-0.603-12.606-3.854-19.369-2.405c-4.43,0.947-9.171-0.62-13.841-0.228c-4.357,0.366-8.606,1.115-12.912,1.049
			c-3.515-0.054-6.74-1.247-10.081-1.39c-1.222-0.053-2.585,0.439-3.749,0.756c-2.187,0.594-3.499-0.901-5.643-1.021
			c-3.116-0.173-7.575,0.209-7.575,4.598c-1.458,0.971-0.247,7.032,0.389,9.671c0.001-0.016-0.004-0.029-0.003-0.045
			c0.02,0.053,0.037,0.129,0.054,0.209c-0.086-0.587,0.618,1.243,0.353,1.025c1.526,2.072,4.141,2.4,5.879,4.154
			c1.97,1.988,3.86,3.691,6.778,3.965c3.699,0.347,8.639,0.215,12.054-1.256c2.561-1.103,7.067-2.414,9.125-4.451
			c1.835-1.817,7.163-4.855,9.936-4.855c0-1.465,7.66-0.699,8.677-0.658c3.091,0.123,7.74,4.305,9.67,6.436
			c3.071,3.391,5.905,6.533,7.979,10.578c1.002,1.956,1.844,3.484,2.894,5.4c0.802,1.464,1.471,3.195,1.487,4.859
			c0.028,3.016-0.463,6.021,0.06,9.02c0.305,1.746,1.091,3.583,1.091,5.476c0.901,0,1.22,6.229,1.351,6.548
			c3.36,8.218,3.944,17.362,3.6,26.231c-0.14,3.588-0.25,7.178-0.323,10.769c-0.043,2.064,0.788,7.299-0.411,8.854
			c-2.205,2.857-4.174,5.809-6.242,8.774c-2.593,3.72-6.919,6.409-10.274,9.394c-2.123,0-3.552,1.547-5.665,1.698
			c-3.381,0.243-6.636,0.859-10.052,0.993c-8.622,0.341-14.641-1.471-23.198-1.658c-6.89-0.15-15.943,1.942-22.816,1.393
			c-4.255-0.34-7.018-2.872-11.248-2.25c-2.679,0.396-8.644,0.841-11.355,0.965c-2.292,0.104-6.832-0.37-8.998-1.286
			c-2.245-0.949-6.846-2.119-12.051,2.731c-1.511,1.408-2.562,4.193-3.088,6.039c-1.162,4.084-0.84,10.243,1.16,14.422
			c2.498,5.217,7.268,13.07,19.27,26.238c4.913,5.39,11.081,8.97,17.394,12.017c3.233,1.56,7.478,5.707,11.083,5.707
			c0,1.099,9.321,3.056,10.306,3.582c6.499,3.472,14.767,6.033,22.236,4.334c1.933-0.439,2.865-1.05,4.966-1.323
			c2.484-0.326,4.964-0.689,7.144-1.757c3.454-1.691,6.691-3.815,9.991-5.787c3.628-2.168,9.45-0.475,12.848-2.471
			c3.056-1.796,7.439-1.096,10.601-2.71c4.304-2.195,9.197-7.472,12-11.355c1.092-1.514,2.165-2.827,3.31-4.25
			c2.241-2.785,1.896-4.606,1.772-7.987C267.123,230.003,272.777,221.131,272.218,212.197z M244.631,225.075
			c-0.351,4.299-3.455,8.081-4.341,11.507c0.008,0.004,0.018,0.002,0.023,0.018c0.059-0.121,0.043,0.034-0.048,0.47
			c-0.854,0-2.322,3.128-2.68,3.753c-0.846,1.481-2.265,2.086-3.384,3.429c-0.893,1.07-2.501,1.739-3.68,2.534
			c-1.717,1.158-3.41,3.557-5.795,3.557c0,0.726-7.298,2.535-8.056,2.983c-2.997,1.772-5.212,2.353-8.347,3.315
			c-1.541,0.473-1.742,1.795-3.531,2.182c-1.911,0.413-3.823,0.828-5.72,1.3c-1.325,0.329-2.586,0.751-3.844,1.263
			c-2.9,1.179-3.983-2.063-5.874-3.451c-3.129-2.299-6.777-2.585-9.178-5.974c-0.854-1.205-1.929-2.223-2.943-3.313
			c-2.26-2.433-2.092-3.343-2.229-6.917c-0.067-1.723-0.053-4.736-1.344-6.158c-1.904-2.098-1.928-4-0.626-6.563
			c1.22-2.401,3.246-3.613,5.447-4.775c1.502-0.792,3.699-3.366,5.363-3.38c2.157-0.02,3.221,2.539,4.032,4.128
			c0.541,1.062-0.388,2.289,0.27,3.349c0.962,0.643,1.703,1.561,2.561,2.323c3.829,3.411,9.35,5.066,14.158,6.536
			c2.968,0.907,6.443,3.503,9.563,3.356c2.565-0.12,4.238-0.941,4.6-3.617c0.25-1.849,1.813-3.548,1.813-5.361
			c1.737,0,0.904-7.796,0.805-8.864c-0.08-0.863-0.015-3.528-0.61-4.02c-2.525-2.086,2.609-2.588,3.523-2.67
			c6.418-0.572,13.778-2.426,20.01-1.666C247.418,214.695,244.791,223.114,244.631,225.075z M240.265,237.069
			c0.063-0.275,0.068-0.413,0.048-0.47c-0.02,0.041-0.049,0.112-0.086,0.218c0.018-0.078,0.043-0.157,0.063-0.235
			C240.199,236.537,239.959,237.069,240.265,237.069z M130.526,169.736c1.238-0.82,2.153-1.999,3.278-2.949
			c1.766-1.49,5.3-3.717,7.404-1.581c1.195,1.083,0.812,3.317,1.647,4.628c0.464,0.729,0.691,1.854,1.015,2.756
			c0.554,1.541,0.891,1.479,1.704,2.835c1.075,1.793,2.333,3.745,3.293,5.554c1.067,2.01,3.585,2.443,5.062,4
			c1.965,2.072,3.506,2.833,6.378,2.24c0.514-2.309,2.707-4.586,4.349-6.031c0.673-0.592-0.151-2.021,0.885-2.095
			c0.826-0.058,1.472,0.68,2.212,0.68c0.452,2.725,2.424,5.827,5.503,5.827c0,0.809,8.578,4.271,9.54,4.988
			c3.251,2.425,5.8,4.488,9.981,5.388c6.628,1.425,4.278-10.839,4.984-14.497c0.726-3.758-1.164-8.208-0.55-11.579
			c0.479-2.631,2.198-3.123,3.322-5.089c1.523-2.665,4.423,1.144,5.418,2.337c1.61,0.809,2.355,6.799,3.885,6.799
			c0,3.443,3.024,7.587,4.646,10.52c1.416,2.56,4.525,4.202,7.267,4.989c4.006,1.148,5.433,0.26,5.27-3.826
			c-0.073-1.841-1-2.615-1.339-4.33c-0.546-2.751-1.068-5.523-1.229-8.329c-0.175-3.064-1.136-6.255-1.301-9.495
			c-0.177-3.456-1.188-5.961-3.721-8.298c-3.789-3.497-7.936-3.333-13.066-2.378c-2.311,0.43-4.508,1.076-6.885,1.076
			c0,0.643-2.952,1.637-3.459,1.822c-3.409,1.252-6.249,5.627-8.802,7.895c-1.755,1.56-5.135,7.678-7.804,7.03
			c-1.42-0.345-3.438-2.752-4.385-3.797c-1.855-2.049-4.913-2.776-7.606-3c-2.291-0.191-7.829,3.743-8.616,0.641
			c-0.827-3.254-0.443-6.14,0.032-9.19c1.037-6.649-19.57-3.471-19.57,0.543c-0.472,0.118-2.267,1.012-2.267,1.618
			c-0.991,0-2.063-0.007-2.964,0.478c-1.866,1.004-3.351,2.76-5.775,2.76c0,1.765-7.859,1.637-8.928,1.913
			c-2.595,0.672-3.764,5.565-4.268,7.874c-0.861,3.952,4.529,2.221,6.432,1.984c1.008-0.124,8.058-0.47,8.058-0.766
			C130.687,171.68,130.408,170.443,130.526,169.736z M139.267,155.818C139.267,155.603,138.575,155.992,139.267,155.818
			L139.267,155.818z"/>
	</g>
</g>
<g>
	<g>
		<path fill-rule="evenodd" clip-rule="evenodd" fill="#403F99" d="M129.792,263.273
			C129.884,265.147,128.798,262.798,129.792,263.273c-2.539-1.215-3.502,0.141-5.481,0.223c0.059,1.38-7.51,0.274-8.755,0.722
			c0.051,1.191-5.817,0.563-6.341,2.706c-0.592,2.421,2.349,6.795,4.199,7.629c0.057,1.362,5.615,3.137,5.645,3.797
			c2.728,0.788,6.357,2.23,8.375-1.072c1.376-0.061,2.545-5.958,2.685-5.965c-0.051-1.297,0.992-1.381,0.691-3.138
			C130.53,266.543,129.874,264.936,129.792,263.273z M281.189,316.782c-0.047-3.908-0.896-4.36-3.83-6.799
			c-0.807-1.224-1.729-4.278-2.021-4.674c-1.291-3.425-4.555-7.181-8.059-9.188c-1.693-1.046-6.969-1.662-9.209-1.458
			c-1.996,0.083-4.988-0.602-2.319-3.017c0.677-0.611,1.717-1.557,2.684-2.252c1.279-0.83,3.858-2.535,5.155-3.008
			c1.38-0.657,4.857-1.478,4.931-4.117c0.105-3.854-6.736-1.299-8.808-1.215c-2.91,0.845-4.682,1.312-6.312,2.532
			c-1.125,0.803-2.518,1.312-3.376,2.254c-0.936,0.905-3.774,2.244-5.515,3.45c-4.865,2.937-8.856,7.739-12.546,11.892
			c-2.143,2.41-3.388,4.43-5.517,7.402c-0.803,1.11-1.466,2.243-2.183,2.774c-2.56,1.895-2.356-0.806-2.55-1.678
			c-0.088-2.147-0.631-3.631-0.815-5.379c-0.201-1.906,0.521-4.412-1.107-5.887c-0.645-0.679-5.717-4.372-14.034-3.092
			c0.125,3.441,0.849,6.942,1.282,10.356c0.568,4.481,0.19,7.933,0.354,11.902c-0.43,1.187,4.643,10.214,4.831,10.785
			c1.435,2.217,4.365,6.044,7.926,5.9c9.658,0.066,12.483-8.33,12.952-10.593c1.09-2.807,4.805-10.395,5.904-11.768
			c1.259-2.771,3.085-4.733,4.497-6.405c1.194-1.028,2.317-2.914,4.625-3.299c1.618-0.269,2.625-1.074,4.521-1.344
			c2.355-0.335,4.072-0.965,7.12-0.41c1.907,0.704,3.729,3.983,4.344,6.301c0.656,2.479,0.081,6.079-0.126,7.437
			c-1.938-0.312-2.456-0.957-3.436-2.107c-1.103-1.184-2.447-3.09-3.967-3.212c-2.724-0.222-5.554-0.243-7.086,0.052
			c-2.686,0.75-4.573,1.875-5.363,3.146c-0.616,1.219-2.424,6.843-1.381,11.036c0.091,2.224,0.926,3.438,2.05,5.407
			c1.325,1.768,2.446,4.104,5.263,6.187c2.177,1.596,5.374,3.592,9.199,4.097c2.647,0.35,6.196,0.589,8.302,0.504
			c1.092,1.498,2.656,3.482,6.642,5.563c1.701,0.982,3.349,0.874,4.515,0.898c2.586,0.05,1.927-3.186,2.216-5.248
			c0.729-5.207-0.069-8.779,0.36-14.581C281.653,321.158,281.227,319.831,281.189,316.782z M264.299,320.895
			c-0.191,0.687-0.588,4.164-0.598,4.284c-0.083,1.067-0.84,3.993-1.298,4.079c-0.519,0.153-1.631,0.377-2.543,0.47
			c-1.443,0.204-3.52-0.147-4.498,0.013c-1.457,0.238-2.483-1.11-3.279-2.259c-1.333-2.186-1.242-7.689,0.628-9.113
			c2.689-2.048,3.058-2.577,5.87-2.131c0.001,0.052,3.055,0.864,4.093,1.665C263.524,318.428,264.87,318.834,264.299,320.895z"/>
	</g>
</g>
<path fill="#403F99" d="M205.758,295.324c-1.337-0.115-3.171,1.09-4.679,2.235c-1.773,1.774-1.968,2.399-2.791,3.595
	c-0.111,0.098-2.051,2.096-2.085,2.097c0.083-0.003-4.772,4.049-5.058,4.517c-1.107,1.816-2.885,2.007-4.531,2.827
	c-0.458,0.229-2.493,2.332-2.889,2.681c-0.635,0.56-1.891,1.084-2.494,1.564c-1.033,0.821-6.066,5.546-6.227,1.568
	c-0.038-0.937-1.666-2.983-1.717-3.074c-0.533-0.938-1.792-3.981-2.26-4.724c-0.581-0.919-1.328-2.573-2.315-3.255
	c-2.093-1.443-3.072-4.07-5.279-5.588c-3.214-2.213-5.83-6.721-9.451-7.475c-1.143-0.238-2.788-1.013-4.177-1.526
	c-1.368-0.505-2.889-1.599-4.108-1.934c-4.139-1.134-10.314-1.257-12.966-1.257c-1.856,0.162-3.906,0.21-4.805,0.148
	c-1.967-0.132-2.923,0.107-4.884,0.624c-2.197,0.579-5.372-0.332-7.719-0.086c-0.575,0.061-4.123,0.146-4.624,0.815
	c-0.388,0.52-0.013,2.998,0.513,3.36c1.197,0.824,1.158,1.408,1.975,1.982c0.215,0.151,1.702,0.808,1.765,0.815
	c4.495,0.564,7.857,1.725,12.769,1.525c3.242-0.132,5.87,1.224,8.922,1.101c3.324-0.134,5.549,0.681,7.78,1.517
	c0.382-0.016,1.688,0.67,2.323,1.004c0.515,0.27,1.239,0.354,1.718,0.659c0.783,0.498,2.541,1.435,3.388,1.92
	c1.13,0.646,2.913,2.296,3.495,3.053c1.148,1.494,1.971,2.787,3.011,4.159c1.72,2.271,3.175,4.879,5.224,8.654
	c0.554,0.935,1.021,2.797,2.173,5.673c0.259,0.646,0.635,3.998,0.495,4.493c-0.192,0.742-0.414,1.486-0.643,2.22
	c-0.193,0.617-0.557,1.832-1.145,2.312c-1.557,1.27-1.447,2.522-2.991,3.863c-0.848,0.737-1.861,2.453-1.83,3.236
	c0.061,1.552-0.694,3.161-0.655,5.121c0.061,3.092,1.112,6.141,1.23,9.116c0.053,1.317,0.977,2.321,1.183,4.322
	c0.345,3.336,2.03,6.28,2.636,9.57c0.291,1.581,1.978,3.687,2.962,4.905c0.225,0.279,1.606,1.205,2.482,1.925
	c0.57,0.686,1.689,1.189,1.937,1.358c1.042,0.713,10.737-0.277,11.524-0.441c2.325-0.483,3.377-0.545,5.388-1.556
	c1.492-0.764,2.228-1.766,2.416-2.423c0.236-0.824,0.015-2.061,0.021-2.908c0.019-2.72,0.329-5.606,0.059-8.313
	c-0.285-2.86-1.793-5.997-1.92-9.101c-0.018-0.448-2.429-8.092-2.484-8.285c-1.225-4.359-2.765-7.146-2.933-7.941
	c-1.746-2.685-1.426-3.996-0.818-5.262c0.582-1.211,2.03-2.451,2.892-3.49c0.561-0.677,1.133-1.386,1.521-1.853
	c0.474-0.57,2.279-3.725,5.077-6.032c1.104-0.912,4.951-3.618,5.891-4.125c3.133-1.687,13.577-9.961,11.338-3.154
	C208.685,306.537,206.458,300.846,205.758,295.324z M177.316,363.758c-2.012,2.972-6.792-3.602-7.129-5.683
	c-0.331-2.048-0.427-4.258-0.073-6.31c-0.035,0.109,0.484-2.724,0.538-2.85c0.7-1.65,0.742-3.044,2.874-4.037
	c1.023,1.064,2.238,4.777,2.71,7.05C177.52,356.421,178.198,362.456,177.316,363.758
	C177.115,364.056,177.428,363.594,177.316,363.758z"/>
</svg>
